# xmcd CD database file
# Copyright (C) 1993-1998 Ti Kan
# 
# Track frame offsets:
#     182
#     13667
#     23070
#     35645
#     49005
#     60995
#     70955
#     83040
#     94022
#     105775
#     119165
#     132400
#     147540
#     161360
#     171002
#     185200
#     198370
#     211642
#     226260
# 
# Disc length: 3194 seconds
# 
# Revision: 1
# Processed by: cddbd v1.4b41PL1 Copyright (c) Steve Scherf et al.
# Submitted via: DiscPlay 4.0.4
# 
DISCID=000c7813
DTITLE=Howlin' Wolf - Howlin' For My Baby
DYEAR=1900
DGENRE=
TTITLE0=My Baby Walked Off
TTITLE1=Smile At Me
TTITLE2=Bluebird Blues
TTITLE3=Everybody's In The Mood
TTITLE4=Chocolate Drop
TTITLE5=Come Back Home
TTITLE6=Dorothy Mae
TTITLE7=Highway Man
TTITLE8=Oh Red
TTITLE9=My Last Affair
TTITLE10=Howlin' For My Baby
TTITLE11=Sweet Woman
TTITLE12=C.V. Wine Blues
TTITLE13=Look-A-Here Baby
TTITLE14=Decoration Day Blues
TTITLE15=Well That's Alright
TTITLE16=California Blues
TTITLE17=My Troubles And Me
TTITLE18=California Boogie
EXTD=
EXTT0=
EXTT1=
EXTT2=
EXTT3=
EXTT4=
EXTT5=
EXTT6=
EXTT7=
EXTT8=
EXTT9=
EXTT10=
EXTT11=
EXTT12=
EXTT13=
EXTT14=
EXTT15=
EXTT16=
EXTT17=
EXTT18=
PLAYORDER=
